<?xml version="1.0" standalone="no"?>
<!DOCTYPE svg PUBLIC "-//W3C//DTD SVG 20010904//EN"
 "http://www.w3.org/TR/2001/REC-SVG-20010904/DTD/svg10.dtd">
<svg version="1.0" xmlns="http://www.w3.org/2000/svg"
 width="500.000000pt" height="500.000000pt" viewBox="0 0 500.000000 500.000000"
 preserveAspectRatio="xMidYMid meet">
<metadata>
Created by potrace 1.14, written by Peter Selinger 2001-2017
</metadata>
<g transform="translate(0.000000,500.000000) scale(0.100000,-0.100000)"
fill="#000000" stroke="none">
<path d="M2383 3623 c15 -2 39 -2 55 0 15 2 2 4 -28 4 -30 0 -43 -2 -27 -4z"/>
<path d="M2578 3623 c12 -2 32 -2 45 0 12 2 2 4 -23 4 -25 0 -35 -2 -22 -4z"/>
<path d="M2303 3613 c9 -2 25 -2 35 0 9 3 1 5 -18 5 -19 0 -27 -2 -17 -5z"/>
<path d="M2673 3613 c9 -2 23 -2 30 0 6 3 -1 5 -18 5 -16 0 -22 -2 -12 -5z"/>
<path d="M2211 3599 c-18 -6 -31 -12 -28 -15 3 -3 27 1 53 10 53 16 30 20 -25
5z"/>
<path d="M2740 3600 c34 -11 60 -11 35 0 -11 5 -29 8 -40 8 -16 0 -15 -2 5 -8z"/>
<path d="M2835 3575 c17 -8 37 -14 45 -14 8 0 -1 7 -20 14 -46 18 -64 17 -25
0z"/>
<path d="M2070 3550 c-8 -5 -10 -10 -5 -10 6 0 17 5 25 10 8 5 11 10 5 10 -5
0 -17 -5 -25 -10z"/>
<path d="M2895 3550 c-4 -6 1 -7 11 -3 12 4 15 3 10 -5 -5 -8 -2 -10 9 -5 13
5 14 7 3 14 -17 11 -26 11 -33 -1z"/>
<path d="M2025 3530 c-3 -6 1 -7 9 -4 18 7 21 14 7 14 -6 0 -13 -4 -16 -10z"/>
<path d="M2410 3523 c0 -6 -8 -10 -17 -8 -10 1 -12 0 -5 -2 6 -3 12 -12 13
-21 0 -12 3 -9 10 7 5 13 7 26 4 29 -3 3 -5 1 -5 -5z"/>
<path d="M2446 3519 c2 -4 -4 -12 -13 -18 -10 -6 -13 -11 -7 -11 5 0 14 4 20
9 5 5 20 11 34 13 23 3 22 4 -7 9 -18 3 -30 2 -27 -2z"/>
<path d="M1965 3500 c-39 -26 -25 -26 17 0 18 11 29 20 23 20 -5 0 -23 -9 -40
-20z"/>
<path d="M2520 3516 c0 -2 15 -6 34 -8 19 -2 32 0 30 4 -5 8 -64 12 -64 4z"/>
<path d="M2620 3507 c29 -14 38 -51 18 -74 -11 -14 -11 -15 1 -8 11 6 13 4 7
-11 -5 -13 -4 -16 3 -9 5 6 11 27 13 48 3 50 20 65 46 39 13 -13 18 -28 15
-46 -3 -14 -3 -26 0 -26 2 0 7 12 10 27 3 19 -2 33 -20 51 -24 24 -25 24 -45
6 -16 -14 -20 -15 -16 -4 4 11 -3 16 -26 17 l-31 2 25 -12z"/>
<path d="M2194 3478 c-7 -9 -6 -25 3 -48 l13 -35 -6 43 c-6 41 -5 42 24 42 26
0 31 -4 36 -35 4 -19 11 -37 16 -40 5 -3 3 14 -3 37 -11 37 -17 43 -43 46 -17
2 -35 -3 -40 -10z"/>
<path d="M2470 3486 c0 -2 7 -7 16 -10 8 -3 12 -2 9 4 -6 10 -25 14 -25 6z"/>
<path d="M2510 3481 c0 -6 4 -12 8 -15 5 -3 9 1 9 9 0 8 -4 15 -9 15 -4 0 -8
-4 -8 -9z"/>
<path d="M2552 3484 c4 -3 2 -19 -2 -35 -11 -38 5 -29 18 11 9 25 8 30 -5 30
-9 0 -14 -3 -11 -6z"/>
<path d="M2768 3483 c7 -3 16 -2 19 1 4 3 -2 6 -13 5 -11 0 -14 -3 -6 -6z"/>
<path d="M2338 3473 c7 -3 16 -2 19 1 4 3 -2 6 -13 5 -11 0 -14 -3 -6 -6z"/>
<path d="M2442 3464 c9 -9 21 -15 27 -13 6 2 -2 10 -17 17 -25 11 -25 11 -10
-4z"/>
<path d="M3077 3469 c7 -7 15 -10 18 -7 3 3 -2 9 -12 12 -14 6 -15 5 -6 -5z"/>
<path d="M2337 3454 c7 -3 9 -12 6 -21 -4 -11 -2 -14 5 -9 18 11 14 36 -5 35
-10 0 -13 -3 -6 -5z"/>
<path d="M2500 3451 c0 -5 5 -13 10 -16 6 -3 10 -2 10 4 0 5 -4 13 -10 16 -5
3 -10 2 -10 -4z"/>
<path d="M1867 3443 c-3 -5 5 -8 18 -8 13 0 21 3 18 8 -2 4 -10 7 -18 7 -8 0
-16 -3 -18 -7z"/>
<path d="M3120 3440 c0 -5 5 -10 11 -10 5 0 7 5 4 10 -3 6 -8 10 -11 10 -2 0
-4 -4 -4 -10z"/>
<path d="M2420 3430 c-9 -6 -10 -10 -3 -10 6 0 15 5 18 10 8 12 4 12 -15 0z"/>
<path d="M2573 3425 c0 -8 4 -12 9 -9 5 3 6 10 3 15 -9 13 -12 11 -12 -6z"/>
<path d="M2678 3422 c-3 -11 0 -19 7 -19 7 0 10 8 7 19 -2 10 -6 18 -7 18 -1
0 -5 -8 -7 -18z"/>
<path d="M1829 3413 c-12 -16 -12 -17 2 -6 9 7 20 9 24 5 5 -4 5 -1 1 6 -9 16
-11 15 -27 -5z"/>
<path d="M2245 3419 c-4 -6 -5 -12 -2 -15 2 -3 7 2 10 11 7 17 1 20 -8 4z"/>
<path d="M2475 3420 c-4 -6 -12 -7 -18 -4 -7 4 -8 3 -4 -1 13 -15 34 -14 34 1
0 17 -4 18 -12 4z"/>
<path d="M3150 3426 c0 -2 8 -10 18 -17 15 -13 16 -12 3 4 -13 16 -21 21 -21
13z"/>
<path d="M2368 3413 c7 -3 16 -2 19 1 4 3 -2 6 -13 5 -11 0 -14 -3 -6 -6z"/>
<path d="M1699 3300 c-58 -57 -98 -104 -94 -110 7 -12 20 -5 20 11 0 17 107
129 117 123 7 -4 8 -2 4 4 -4 7 -2 13 3 13 6 1 17 2 24 3 6 0 12 6 12 11 0 19
16 35 27 29 7 -4 8 -2 4 4 -4 7 -9 12 -12 12 -2 0 -50 -45 -105 -100z"/>
<path d="M2552 3381 c-11 -6 -10 -10 4 -15 9 -3 19 -4 22 -1 3 3 0 5 -7 5 -7
0 -9 5 -6 10 7 12 4 12 -13 1z"/>
<path d="M3207 3379 c7 -9 9 -20 5 -24 -4 -5 -1 -5 6 0 9 5 27 -6 53 -31 32
-31 36 -40 26 -53 -10 -14 -10 -14 5 -3 13 11 18 11 25 0 4 -7 17 -19 28 -27
11 -8 -7 13 -40 48 -56 58 -136 125 -108 90z"/>
<path d="M1823 3368 c-11 -19 -13 -39 -1 -32 5 3 7 9 4 12 -3 3 -1 11 5 19 6
7 9 13 6 13 -3 0 -9 -6 -14 -12z"/>
<path d="M2445 3359 c3 -3 -16 -9 -41 -13 -25 -3 -67 -17 -94 -30 -36 -18 -51
-21 -60 -13 -8 9 -10 8 -5 -4 5 -12 -4 -15 -47 -17 -66 -2 -98 -5 -93 -10 5
-5 -70 -72 -81 -72 -4 0 1 7 12 16 18 14 18 15 -3 4 -13 -6 -22 -14 -20 -19 1
-5 -37 -43 -85 -85 -86 -75 -119 -97 -82 -54 12 14 13 18 3 10 -9 -6 -19 -9
-22 -6 -3 3 -16 -1 -29 -10 -12 -9 -17 -16 -11 -16 7 0 15 5 18 10 3 6 10 10
15 10 18 0 2 -32 -33 -68 -19 -20 -41 -50 -47 -67 -11 -30 -10 -165 1 -162 4
1 18 -10 32 -25 l26 -28 -154 0 c-154 0 -161 2 -156 33 1 5 -3 6 -9 2 -5 -3
-10 -1 -10 4 0 6 -11 21 -25 33 -14 12 -25 29 -26 37 0 10 -2 12 -6 4 -3 -9
-15 -7 -46 8 -175 90 -390 -43 -390 -241 0 -74 17 -121 62 -172 17 -20 31 -39
31 -43 0 -4 -14 -23 -31 -43 -45 -51 -62 -98 -62 -172 0 -158 135 -282 293
-267 73 6 124 33 183 96 l48 51 270 0 269 0 10 -26 c8 -19 7 -31 -2 -43 -11
-14 -11 -14 3 -3 13 10 18 10 28 -1 6 -8 7 -18 3 -22 -4 -5 -2 -5 4 -2 7 4 18
0 25 -9 7 -9 34 -27 61 -40 48 -24 77 -68 81 -121 1 -11 5 -19 9 -17 4 2 9 -4
13 -15 3 -11 17 -36 31 -57 17 -24 20 -35 10 -31 -10 4 -13 1 -9 -8 3 -8 10
-12 16 -8 7 4 34 7 62 8 48 0 50 1 52 30 1 16 7 31 13 33 5 2 8 8 4 13 -3 5
18 9 46 9 32 0 49 -4 45 -10 -3 -6 -3 -10 2 -10 4 0 14 -14 21 -30 24 -53 92
-51 127 4 9 14 32 60 50 103 29 67 40 81 77 103 60 34 107 79 123 118 l14 33
275 -1 275 -1 -3 -29 c-2 -17 1 -27 6 -24 5 3 7 13 3 23 -3 9 16 -5 42 -30 61
-60 102 -80 173 -86 75 -7 145 16 203 67 112 99 120 286 17 385 l-29 28 34 38
c47 52 66 103 67 175 1 201 -212 336 -389 245 -31 -15 -43 -17 -46 -8 -4 9 -6
8 -6 -2 -1 -7 -17 -31 -36 -52 -19 -22 -35 -44 -35 -49 0 -6 -60 -10 -159 -10
l-160 0 27 28 c15 15 30 26 34 24 4 -1 5 5 1 14 -3 10 -2 15 3 12 5 -4 9 27 9
73 0 44 -2 74 -4 68 -2 -6 -12 3 -22 21 -11 17 -16 36 -13 42 4 6 3 8 -3 5
-14 -9 -55 22 -47 35 4 6 3 8 -3 5 -5 -3 -29 12 -54 35 -24 22 -37 35 -28 29
12 -8 16 -7 16 3 0 7 -11 12 -26 12 -17 -1 -25 4 -23 12 1 8 -2 11 -6 8 -12
-7 -44 28 -35 39 5 4 2 5 -5 1 -14 -8 -65 31 -57 43 2 4 -1 13 -7 21 -8 12 -9
12 -4 -2 7 -23 -7 -23 -25 -1 -23 28 -97 55 -130 48 -20 -5 -39 -1 -62 13 -17
11 -56 27 -85 37 -54 17 -204 36 -197 24z m238 -88 c37 -19 67 -35 67 -36 0
-2 -13 -17 -30 -35 -16 -17 -32 -47 -36 -66 -7 -40 -10 -41 -35 -10 -52 66
-282 55 -319 -14 -6 -11 -16 -20 -23 -20 -18 0 -159 -69 -179 -87 -17 -15 -18
-14 -18 8 0 63 90 193 166 240 74 46 133 60 240 56 92 -2 107 -5 167 -36z
m159 -146 c10 -19 10 -19 -8 -4 -28 24 -60 32 -84 19 -29 -16 -26 5 6 37 l26
26 24 -29 c13 -16 29 -38 36 -49z m-79 -38 c4 3 18 -2 31 -11 35 -22 54 -20
58 7 3 17 7 10 21 -27 9 -27 15 -51 13 -53 -1 -2 -30 13 -62 32 -32 20 -69 38
-81 41 -13 4 -23 10 -23 15 0 6 8 6 19 0 10 -6 21 -8 24 -4z m-310 -131 c26
-6 27 -8 27 -80 0 -82 -3 -86 -71 -86 -101 0 -279 -54 -346 -106 -50 -38 -67
-27 -59 39 16 122 100 228 237 296 l82 41 51 -48 c28 -27 64 -52 79 -56z m303
64 c134 -65 221 -171 238 -291 10 -68 -9 -79 -66 -40 -79 53 -238 101 -337
101 -68 0 -71 4 -71 86 0 74 0 74 33 88 17 7 50 32 72 55 21 22 41 41 44 41 2
0 42 -18 87 -40z m-1417 -239 c41 -22 95 -78 106 -110 6 -20 13 -21 249 -21
260 0 306 -7 370 -58 38 -29 81 -28 111 3 14 13 25 30 25 37 0 9 3 9 12 0 19
-19 82 -14 111 8 20 16 30 18 52 10 40 -15 70 -12 99 11 l26 20 26 -20 c31
-24 68 -26 104 -7 22 13 27 12 54 -11 25 -21 38 -24 72 -20 37 4 44 1 55 -20
23 -43 105 -47 136 -6 7 9 36 24 65 35 45 16 85 18 294 18 l242 0 12 30 c14
34 80 97 116 110 14 6 51 10 82 10 71 0 124 -29 166 -88 25 -35 31 -55 34
-112 4 -61 1 -75 -22 -115 -15 -25 -43 -56 -61 -68 -19 -12 -35 -28 -35 -36 0
-8 18 -30 40 -49 62 -52 83 -101 78 -182 -5 -88 -36 -137 -109 -174 -108 -54
-224 -17 -280 88 l-24 46 -332 0 c-215 0 -333 4 -333 10 0 6 -9 19 -20 30 -28
28 -83 27 -107 -4 -15 -18 -23 -21 -41 -15 -24 9 -48 3 -73 -17 -11 -10 -24
-11 -49 -4 -25 7 -41 6 -62 -5 -26 -12 -33 -12 -62 2 -30 14 -37 14 -63 1 -28
-14 -31 -13 -58 9 -21 18 -34 23 -56 18 -21 -5 -31 -2 -35 8 -3 8 -18 20 -34
27 -35 15 -80 -3 -95 -38 l-10 -22 -330 0 -330 -1 -30 -52 c-59 -103 -184
-135 -288 -74 -127 75 -136 248 -17 349 22 19 40 40 40 46 0 6 -18 25 -40 42
-68 54 -96 130 -79 212 13 60 58 122 106 147 51 27 141 28 192 2z m1141 -41
c0 -26 -34 -60 -60 -60 -25 0 -76 48 -64 60 8 8 25 10 107 18 11 1 17 -5 17
-18z m164 0 c12 -12 -39 -60 -64 -60 -26 0 -60 34 -60 61 0 19 4 20 58 14 31
-4 61 -11 66 -15z m-324 -22 c0 -51 -61 -76 -95 -38 -22 24 -14 34 35 48 53
15 60 14 60 -10z m428 7 c29 -9 52 -19 52 -22 0 -15 -35 -43 -53 -43 -28 0
-57 29 -57 57 0 12 1 23 3 23 2 0 27 -7 55 -15z m-578 -55 c0 -22 -33 -60 -53
-60 -14 0 -37 20 -37 32 0 10 61 48 78 48 6 0 12 -9 12 -20z m718 0 c41 -25
40 -54 -3 -58 -33 -4 -55 18 -55 55 0 28 15 29 58 3z m-674 -546 c14 -13 23
-64 12 -64 -24 0 -66 26 -66 40 0 15 21 37 37 40 1 0 9 -7 17 -16z m614 -6
c20 -20 14 -35 -19 -47 -41 -14 -39 -15 -39 12 0 24 17 47 35 47 6 0 16 -5 23
-12z m-490 -56 c3 -22 1 -23 -35 -16 -47 8 -49 10 -33 29 20 24 64 15 68 -13z
m382 13 c16 -20 11 -24 -34 -32 -27 -4 -36 -2 -36 9 0 35 47 50 70 23z m-515
-43 c65 -20 108 -25 237 -29 197 -7 330 11 451 62 14 6 17 2 17 -19 0 -39 -60
-99 -131 -131 -241 -108 -628 -42 -688 116 -11 31 -4 43 18 33 9 -4 52 -18 96
-32z m263 26 c21 -21 13 -28 -33 -28 -25 0 -45 4 -45 8 0 15 24 32 45 32 12 0
26 -5 33 -12z m130 0 c21 -21 13 -28 -33 -28 -25 0 -45 4 -45 8 0 15 24 32 45
32 12 0 26 -5 33 -12z m98 -263 c-31 -78 -41 -95 -57 -100 -29 -9 -39 2 -39
45 l0 38 -100 0 -100 0 0 -31 c-1 -72 -47 -74 -75 -4 -10 23 -19 47 -21 52 -3
6 66 10 196 10 129 0 199 -4 196 -10z"/>
<path d="M2170 3118 c-27 -29 -26 -50 3 -46 12 2 21 8 20 14 -1 7 10 10 29 8
39 -5 63 12 47 32 -18 22 -75 17 -99 -8z"/>
<path d="M2360 2920 c0 -5 5 -10 10 -10 6 0 10 5 10 10 0 6 -4 10 -10 10 -5 0
-10 -4 -10 -10z"/>
<path d="M2365 2850 c3 -5 8 -10 11 -10 2 0 4 5 4 10 0 6 -5 10 -11 10 -5 0
-7 -4 -4 -10z"/>
<path d="M2295 2840 c3 -5 8 -10 11 -10 2 0 4 5 4 10 0 6 -5 10 -11 10 -5 0
-7 -4 -4 -10z"/>
<path d="M2610 2920 c0 -5 5 -10 10 -10 6 0 10 5 10 10 0 6 -4 10 -10 10 -5 0
-10 -4 -10 -10z"/>
<path d="M2610 2850 c0 -5 5 -10 10 -10 6 0 10 5 10 10 0 6 -4 10 -10 10 -5 0
-10 -4 -10 -10z"/>
<path d="M2680 2840 c0 -5 5 -10 10 -10 6 0 10 5 10 10 0 6 -4 10 -10 10 -5 0
-10 -4 -10 -10z"/>
<path d="M2124 2537 c-2 -7 -3 -80 -2 -162 l3 -150 38 -3 37 -3 0 165 0 166
-35 0 c-20 0 -38 -6 -41 -13z"/>
<path d="M2254 2537 c-2 -7 -3 -80 -2 -162 l3 -150 38 -3 37 -3 0 165 0 166
-35 0 c-20 0 -38 -6 -41 -13z"/>
<path d="M1580 2375 l0 -155 35 0 34 0 3 68 3 67 50 0 50 0 3 -67 3 -68 34 0
35 0 0 155 0 155 -35 0 -35 0 0 -60 0 -60 -55 0 -55 0 0 60 0 60 -35 0 -35 0
0 -155z"/>
<path d="M2670 2375 l0 -145 25 0 c24 0 25 3 25 54 l0 53 41 7 c58 9 89 44 89
100 0 61 -22 76 -112 76 l-68 0 0 -145z m104 105 c51 -19 22 -100 -36 -100
-15 0 -18 9 -18 55 0 59 6 64 54 45z"/>
<path d="M3123 2470 c-3 -11 -9 -20 -14 -20 -5 0 -9 -9 -9 -20 0 -11 4 -20 9
-20 5 0 11 -34 13 -76 3 -66 7 -79 27 -96 28 -22 64 -20 69 4 2 11 -5 18 -20
20 -21 3 -23 8 -26 75 l-3 72 28 3 c37 4 37 32 1 36 -20 2 -28 9 -28 23 0 26
-40 26 -47 -1z"/>
<path d="M1928 2444 c-57 -30 -74 -112 -38 -172 23 -37 54 -52 108 -52 64 0
82 9 82 40 0 28 -1 28 -40 18 -32 -8 -45 -7 -65 6 -40 26 -29 36 40 36 63 0
65 1 65 25 0 91 -77 140 -152 99z m72 -54 c10 -18 8 -20 -20 -20 -32 0 -38 8
-18 28 17 17 26 15 38 -8z"/>
<path d="M2434 2451 c-41 -18 -64 -60 -64 -115 1 -76 40 -116 115 -116 44 0
89 25 104 57 6 13 11 44 11 68 0 63 -39 105 -100 111 -25 2 -55 0 -66 -5z m66
-51 c38 -20 33 -112 -6 -127 -27 -10 -57 34 -50 75 5 31 21 62 33 62 2 0 13
-4 23 -10z"/>
<path d="M2917 2430 c-75 -59 -40 -191 54 -206 43 -7 91 10 83 29 -4 11 -17
13 -48 10 -38 -5 -45 -2 -64 22 -12 15 -22 32 -22 36 0 5 32 9 71 9 l71 0 -7
33 c-16 79 -82 111 -138 67z m77 -26 c28 -28 20 -44 -24 -44 -33 0 -40 3 -40
20 0 17 23 39 42 40 4 0 14 -7 22 -16z"/>
<path d="M3304 2443 c-6 -5 -16 -18 -23 -30 -17 -33 1 -66 47 -87 46 -21 58
-39 36 -57 -12 -10 -25 -10 -55 -2 -35 9 -39 8 -39 -9 0 -38 82 -50 124 -17
48 38 33 85 -41 123 -56 28 -40 58 26 48 28 -4 33 -2 29 14 -2 15 -13 20 -48
22 -25 1 -50 -1 -56 -5z"/>
<path d="M2751 3311 c-8 -5 -9 -11 -3 -15 5 -3 12 1 16 9 6 17 6 18 -13 6z"/>
<path d="M1656 3213 c-6 -14 -5 -15 5 -6 7 7 10 15 7 18 -3 3 -9 -2 -12 -12z"/>
<path d="M2980 3210 c-9 -6 -10 -10 -3 -10 6 0 15 5 18 10 8 12 4 12 -15 0z"/>
<path d="M3373 3205 c0 -8 4 -12 7 -10 9 6 63 -74 63 -92 0 -7 4 -10 8 -7 4 2
11 -6 15 -18 3 -12 11 -26 16 -32 5 -6 16 -20 24 -31 25 -32 -35 74 -78 137
-41 62 -55 75 -55 53z"/>
<path d="M1911 3130 c-13 -11 -19 -20 -14 -20 6 0 18 9 28 20 23 25 17 25 -14
0z"/>
<path d="M1535 3100 c-3 -5 -3 -10 2 -10 4 0 1 -5 -7 -11 -12 -8 -12 -10 -1
-7 8 2 15 12 17 21 3 19 -2 22 -11 7z"/>
<path d="M1566 3088 c3 -5 10 -6 15 -3 13 9 11 12 -6 12 -8 0 -12 -4 -9 -9z"/>
<path d="M1495 3029 c-9 -17 -15 -33 -13 -35 3 -2 12 12 21 31 21 43 13 47 -8
4z"/>
<path d="M1775 3010 c-3 -6 1 -7 9 -4 18 7 21 14 7 14 -6 0 -13 -4 -16 -10z"/>
<path d="M1452 2935 c-17 -37 -14 -45 4 -12 9 16 14 31 11 33 -2 2 -9 -7 -15
-21z"/>
<path d="M3546 2920 c3 -14 11 -32 16 -40 6 -10 7 -7 2 10 -3 14 -11 32 -16
40 -6 10 -7 7 -2 -10z"/>
<path d="M1515 1935 c27 -49 58 -91 36 -48 -6 12 -10 28 -9 35 2 7 -3 12 -9
11 -7 -2 -13 1 -13 5 0 5 -7 17 -16 28 -9 10 -4 -3 11 -31z"/>
<path d="M3490 1961 c0 -7 -5 -9 -12 -5 -7 5 -8 3 -3 -5 5 -9 10 -10 18 -2 6
6 8 14 4 18 -4 3 -7 1 -7 -6z"/>
<path d="M3403 1863 c17 -20 17 -22 2 -30 -9 -6 -16 -13 -15 -17 1 -4 -12 -23
-29 -42 -17 -19 -28 -34 -23 -34 7 0 37 35 84 96 5 7 -1 18 -15 30 l-22 19 18
-22z"/>
<path d="M1570 1846 c0 -2 8 -10 18 -17 15 -13 16 -12 3 4 -13 16 -21 21 -21
13z"/>
<path d="M1790 1840 c-9 -6 -10 -10 -3 -10 6 0 15 5 18 10 8 12 4 12 -15 0z"/>
<path d="M3236 1832 c-3 -5 1 -13 10 -16 9 -4 14 -13 10 -21 -8 -22 2 -18 15
6 7 13 7 19 1 15 -6 -4 -15 1 -20 10 -6 10 -12 12 -16 6z"/>
<path d="M3180 1809 c-13 -7 -12 -9 2 -9 19 0 42 -35 33 -50 -9 -14 -41 -12
-54 3 -6 8 -7 18 -3 22 4 5 1 5 -6 1 -22 -13 16 -46 48 -44 22 2 27 7 25 24
-3 35 -29 64 -45 53z"/>
<path d="M1600 1806 c0 -2 8 -10 18 -17 15 -13 16 -12 3 4 -13 16 -21 21 -21
13z"/>
<path d="M1802 1803 c-7 -2 -17 -14 -23 -26 -11 -22 -11 -22 10 1 26 26 34 27
52 6 10 -12 10 -20 1 -35 -7 -10 -12 -27 -11 -36 0 -14 2 -15 6 -3 2 8 9 25
15 37 9 18 8 27 -7 43 -19 21 -22 22 -43 13z"/>
<path d="M3066 1773 c-6 -14 -5 -15 5 -6 7 7 10 15 7 18 -3 3 -9 -2 -12 -12z"/>
<path d="M1695 1702 c38 -40 71 -72 73 -72 10 0 -93 106 -126 131 -9 7 14 -20
53 -59z"/>
<path d="M1880 1759 c0 -5 5 -7 10 -4 6 3 10 8 10 11 0 2 -4 4 -10 4 -5 0 -10
-5 -10 -11z"/>
<path d="M3095 1749 c-4 -6 0 -9 11 -7 10 2 19 -1 19 -7 1 -17 15 -35 28 -35
8 0 8 3 -1 9 -8 4 -13 11 -13 15 3 29 -30 48 -44 25z"/>
<path d="M3256 1752 c-3 -5 1 -9 9 -9 8 0 12 4 9 9 -3 4 -7 8 -9 8 -2 0 -6 -4
-9 -8z"/>
<path d="M1900 1726 c-5 -13 -14 -27 -20 -31 -13 -8 3 -31 34 -46 16 -8 16 -6
-4 9 -23 19 -23 22 -10 49 8 15 16 31 18 36 2 4 1 7 -3 7 -3 0 -10 -11 -15
-24z"/>
<path d="M1860 1719 c0 -5 5 -7 10 -4 6 3 10 8 10 11 0 2 -4 4 -10 4 -5 0 -10
-5 -10 -11z"/>
<path d="M1920 1726 c0 -2 7 -7 16 -10 8 -3 12 -2 9 4 -6 10 -25 14 -25 6z"/>
<path d="M3080 1717 c8 -7 21 -19 29 -27 11 -13 12 -12 3 6 -7 12 -19 24 -29
28 -16 5 -16 4 -3 -7z"/>
<path d="M3303 1713 c0 -9 4 -10 14 -2 7 6 13 12 13 14 0 1 -6 2 -13 2 -8 0
-14 -6 -14 -14z"/>
<path d="M1967 1705 c-6 -15 10 -32 20 -21 4 3 1 6 -5 6 -6 0 -9 7 -6 15 4 8
4 15 1 15 -3 0 -7 -7 -10 -15z"/>
<path d="M2966 1708 c3 -5 10 -6 15 -3 13 9 11 12 -6 12 -8 0 -12 -4 -9 -9z"/>
<path d="M3279 1703 c-1 -5 -1 -11 0 -15 1 -13 -61 -58 -71 -52 -6 4 -8 2 -5
-3 8 -13 -15 -34 -39 -37 -10 -2 -25 -13 -33 -26 -15 -22 -15 -23 4 -12 43 23
152 121 152 136 0 16 -6 22 -8 9z"/>
<path d="M1915 1690 c-3 -5 -1 -10 4 -10 6 0 11 5 11 10 0 6 -2 10 -4 10 -3 0
-8 -4 -11 -10z"/>
<path d="M3006 1689 c3 -5 9 -7 13 -5 4 3 14 -6 21 -19 7 -14 19 -25 26 -25
16 0 -36 54 -54 56 -6 1 -10 -2 -6 -7z"/>
<path d="M3065 1680 c3 -5 8 -10 11 -10 2 0 4 5 4 10 0 6 -5 10 -11 10 -5 0
-7 -4 -4 -10z"/>
<path d="M1945 1669 c-4 -6 -4 -13 -1 -16 3 -4 6 -1 6 6 0 7 5 9 12 5 7 -4 8
-3 4 4 -9 15 -13 15 -21 1z"/>
<path d="M2056 1663 c-6 -14 -5 -15 5 -6 7 7 10 15 7 18 -3 3 -9 -2 -12 -12z"/>
<path d="M2991 1663 c-1 -12 4 -25 9 -28 12 -7 12 2 0 30 -8 19 -9 19 -9 -2z"/>
<path d="M1970 1644 c0 -6 6 -17 14 -23 10 -9 16 -8 26 4 11 13 10 14 -5 9
-10 -4 -21 -1 -26 7 -5 8 -9 9 -9 3z"/>
<path d="M2921 1647 c2 -1 13 -9 24 -17 19 -14 19 -14 6 3 -7 9 -18 17 -24 17
-6 0 -8 -1 -6 -3z"/>
<path d="M2096 1632 c-3 -4 4 -9 15 -9 23 -2 25 3 4 10 -8 4 -16 3 -19 -1z"/>
<path d="M1797 1608 c19 -21 31 -25 14 -5 -6 8 -9 16 -6 19 3 2 -2 5 -10 5
-13 0 -13 -3 2 -19z"/>
<path d="M2865 1620 c-3 -6 1 -7 9 -4 10 4 16 1 16 -9 0 -8 -6 -17 -12 -20 -7
-2 0 -6 15 -9 20 -4 25 -2 18 5 -6 6 -11 19 -11 29 0 19 -25 25 -35 8z"/>
<path d="M2026 1607 c3 -10 9 -15 12 -12 3 3 0 11 -7 18 -10 9 -11 8 -5 -6z"/>
<path d="M2073 1599 c-2 -23 3 -25 10 -4 4 8 3 16 -1 19 -4 3 -9 -4 -9 -15z"/>
<path d="M2122 1602 c-19 -15 -20 -20 -9 -42 7 -14 21 -26 32 -27 18 -3 18 -2
-1 6 -30 13 -36 45 -12 60 26 16 51 -3 43 -33 -6 -21 -6 -21 6 -1 7 11 20 27
29 35 8 8 11 12 6 8 -13 -11 -49 -10 -42 0 9 15 -30 10 -52 -6z"/>
<path d="M2732 1592 c7 -7 22 -12 34 -9 18 3 24 -1 26 -21 2 -14 10 -27 18
-29 12 -4 13 -3 1 5 -8 6 -12 20 -9 36 3 14 2 23 -3 21 -4 -3 -10 1 -12 7 -4
10 -6 10 -6 1 -1 -7 -11 -13 -23 -13 -18 0 -20 2 -8 10 12 7 10 9 -7 7 -17 -1
-20 -4 -11 -15z"/>
<path d="M2826 1602 c17 -11 26 -60 11 -65 -9 -4 -9 -6 1 -6 7 -1 15 5 18 12
7 19 -13 67 -28 67 -9 0 -10 -3 -2 -8z"/>
<path d="M3015 1590 c10 -11 20 -20 23 -20 3 0 -3 9 -13 20 -10 11 -20 20 -23
20 -3 0 3 -9 13 -20z"/>
<path d="M2229 1596 c-5 -7 -2 -83 4 -79 4 2 7 17 7 32 0 15 5 32 10 37 7 7 6
11 -5 11 -8 0 -15 -1 -16 -1z"/>
<path d="M1840 1582 c0 -4 10 -13 23 -21 22 -14 22 -14 3 8 -20 22 -26 25 -26
13z"/>
<path d="M2057 1569 c7 -7 15 -10 18 -7 3 3 -2 9 -12 12 -14 6 -15 5 -6 -5z"/>
<path d="M1909 1543 c-13 -16 -12 -17 4 -4 9 7 17 15 17 17 0 8 -8 3 -21 -13z"/>
<path d="M2414 1546 c1 -8 5 -18 8 -22 4 -3 5 1 4 10 -1 8 -5 18 -8 22 -4 3
-5 -1 -4 -10z"/>
<path d="M2463 1528 c-1 -14 5 -32 14 -40 15 -12 15 -11 2 10 -13 21 -12 25 8
42 l23 18 -23 -2 c-16 -1 -23 -8 -24 -28z"/>
<path d="M2262 1538 c2 -6 12 -12 22 -14 14 -2 15 0 5 12 -14 17 -32 19 -27 2z"/>
<path d="M2358 1543 c7 -3 16 -2 19 1 4 3 -2 6 -13 5 -11 0 -14 -3 -6 -6z"/>
<path d="M2730 1543 c0 -6 8 -17 18 -24 16 -13 16 -13 2 6 -8 11 -16 22 -17
24 -2 2 -3 0 -3 -6z"/>
<path d="M1925 1530 c-3 -5 14 -19 37 -30 24 -12 35 -15 26 -7 -10 8 -15 17
-11 21 4 4 -1 4 -11 0 -13 -5 -17 -4 -12 4 5 8 1 10 -10 5 -12 -4 -15 -3 -10
5 4 7 5 12 2 12 -3 0 -7 -4 -11 -10z"/>
<path d="M2177 1529 c7 -7 15 -10 18 -7 3 3 -2 9 -12 12 -14 6 -15 5 -6 -5z"/>
<path d="M2317 1521 c-3 -11 1 -22 8 -25 9 -3 11 2 7 17 -5 21 -4 21 14 6 10
-9 26 -19 34 -24 8 -4 2 4 -15 19 -36 31 -41 31 -48 7z"/>
<path d="M2527 1520 c3 -11 9 -22 13 -25 5 -3 6 4 3 15 -3 11 -9 22 -13 25 -5
3 -6 -4 -3 -15z"/>
<path d="M2650 1536 c0 -2 8 -10 18 -17 15 -13 16 -12 3 4 -13 16 -21 21 -21
13z"/>
<path d="M2585 1520 c-9 -14 13 -40 34 -39 11 0 9 3 -6 9 -13 5 -23 14 -23 20
0 6 5 8 12 4 7 -4 8 -3 4 4 -9 15 -13 15 -21 2z"/>
<path d="M2640 1510 c6 -11 13 -20 16 -20 2 0 0 9 -6 20 -6 11 -13 20 -16 20
-2 0 0 -9 6 -20z"/>
<path d="M3034 1521 c3 -4 -13 -18 -34 -30 -57 -32 -49 -36 10 -5 28 14 50 27
50 29 0 2 -7 6 -16 9 -8 3 -13 2 -10 -3z"/>
<path d="M2859 1493 c-13 -16 -12 -17 4 -4 16 13 21 21 13 21 -2 0 -10 -8 -17
-17z"/>
<path d="M2275 1490 c-3 -6 1 -7 9 -4 18 7 21 14 7 14 -6 0 -13 -4 -16 -10z"/>
<path d="M2045 1462 c14 -14 164 -64 178 -59 7 2 -12 9 -40 16 -29 7 -50 17
-47 22 3 5 -1 6 -9 4 -7 -3 -31 2 -53 11 -21 9 -34 11 -29 6z"/>
<path d="M2807 1419 c7 -7 15 -10 18 -7 3 3 -2 9 -12 12 -14 6 -15 5 -6 -5z"/>
<path d="M2778 1403 c7 -3 16 -2 19 1 4 3 -2 6 -13 5 -11 0 -14 -3 -6 -6z"/>
<path d="M2258 1393 c7 -3 16 -2 19 1 4 3 -2 6 -13 5 -11 0 -14 -3 -6 -6z"/>
<path d="M2695 1390 c-27 -7 -27 -8 -5 -8 14 0 36 4 50 8 20 6 21 8 5 8 -11 0
-33 -4 -50 -8z"/>
<path d="M2298 1383 c6 -2 18 -2 25 0 6 3 1 5 -13 5 -14 0 -19 -2 -12 -5z"/>
<path d="M2373 1373 c15 -2 39 -2 55 0 15 2 2 4 -28 4 -30 0 -43 -2 -27 -4z"/>
<path d="M2598 1373 c12 -2 30 -2 40 0 9 3 -1 5 -23 4 -22 0 -30 -2 -17 -4z"/>
</g>
</svg>
